<?xml version="1.0" encoding="utf-8"?>
<!-- Generator: Adobe Illustrator 27.2.0, SVG Export Plug-In . SVG Version: 6.00 Build 0)  -->
<svg version="1.1" id="Layer_1" xmlns="http://www.w3.org/2000/svg" xmlns:xlink="http://www.w3.org/1999/xlink" x="0px" y="0px"
	 viewBox="0 0 380 300" style="enable-background:new 0 0 380 300;" xml:space="preserve">
<style type="text/css">
	.st0{fill:none;}
	.st1{fill:none;stroke:#EBEBEB;stroke-width:1.07;stroke-linejoin:round;stroke-miterlimit:10;}
	.st2{fill:none;stroke:#306192;stroke-width:1.07;stroke-linejoin:round;stroke-miterlimit:10;}
	.st3{fill:none;stroke:#4CAEBF;stroke-width:1.07;stroke-linejoin:round;stroke-miterlimit:10;}
	.st4{opacity:0.3;fill:#646363;stroke:#EBEBEB;stroke-width:1.07;stroke-linejoin:round;stroke-miterlimit:10;}
	.st5{fill:none;stroke:#231F20;stroke-width:0.75;stroke-miterlimit:10;}
	.st6{fill:#231F20;}
	.st7{fill:#4D4D4D;}
	.st8{font-family:'ArialMT';}
	.st9{font-size:9.7393px;}
	.st10{enable-background:new    ;}
	.st11{font-size:5.067px;}
	.st12{font-size:8.9277px;}
	.st13{font-family:'Arial-BoldMT';}
	.st14{font-size:14.609px;}
	.st15{font-family:'MyriadPro-Regular';}
	.st16{font-family:'Arial-ItalicMT';}
</style>
<rect x="-40.4" y="-395.5" class="st0" width="766.2" height="340.5"/>
<rect x="-40.4" y="-395.5" class="st0" width="766.2" height="340.5"/>
<rect x="-20.6" y="-361" class="st0" width="732.4" height="269.6"/>
<line class="st1" x1="-7.4" y1="-143.2" x2="678.5" y2="-143.2"/>
<line class="st1" x1="-7.4" y1="-359.8" x2="678.5" y2="-359.8"/>
<line class="st1" x1="12.7" y1="-91.4" x2="12.7" y2="-361"/>
<line class="st1" x1="95.2" y1="-91.4" x2="95.2" y2="-361"/>
<line class="st1" x1="179" y1="-91.4" x2="179" y2="-361"/>
<line class="st1" x1="220.5" y1="-91.4" x2="220.5" y2="-361"/>
<line class="st1" x1="262" y1="-91.4" x2="262" y2="-361"/>
<line class="st1" x1="345.8" y1="-91.4" x2="345.8" y2="-361"/>
<line class="st1" x1="428.3" y1="-91.4" x2="428.3" y2="-361"/>
<line class="st1" x1="512.1" y1="-91.4" x2="512.1" y2="-361"/>
<line class="st1" x1="594.6" y1="-91.4" x2="594.6" y2="-361"/>
<line class="st1" x1="678.5" y1="-91.4" x2="678.5" y2="-361"/>
<polyline class="st2" points="12.7,-343.3 26.8,-344.7 39.6,-344.9 53.7,-343 67.4,-344.4 81.5,-348.5 95.2,-348.7 109.3,-346.6 
	123.4,-346.3 137.1,-347.6 151.2,-346.8 164.9,-345.7 179,-346 193.1,-347.6 206.4,-343.6 220.5,-326 234.1,-331.9 248.3,-339.5 
	262,-340.6 276.1,-339 290.2,-337.1 303.9,-339.8 318,-337.9 331.7,-337.1 345.8,-336 359.9,-338.7 372.7,-339.2 386.8,-339.5 
	400.5,-340.3 414.6,-344.9 428.3,-347.1 442.4,-342.8 456.5,-341.4 470.2,-342 484.3,-342.5 498,-341.7 512.1,-340.6 526.3,-343.3 
	539,-344.9 553.1,-343.3 566.8,-344.7 580.9,-347.1 594.6,-348.2 608.7,-346.3 622.9,-344.4 636.5,-344.4 650.7,-343.6 664.3,-343 
	678.5,-342.8 "/>
<polyline class="st3" points="12.7,-105.5 26.8,-106.9 39.6,-112 53.7,-107.4 67.4,-104.5 81.5,-110.7 95.2,-111.5 109.3,-114.5 
	123.4,-109.1 137.1,-106.6 151.2,-109.3 164.9,-106.6 179,-108.3 193.1,-109.6 206.4,-115.6 220.5,-103.7 234.1,-111.5 
	248.3,-112.6 262,-105 276.1,-108.5 290.2,-103.7 303.9,-106.9 318,-108.3 331.7,-106.1 345.8,-104.5 359.9,-107.7 372.7,-107.2 
	386.8,-108.8 400.5,-112 414.6,-118.5 428.3,-117.5 442.4,-119.6 456.5,-123.7 470.2,-125.9 484.3,-130.7 498,-125.6 512.1,-129.6 
	526.3,-125 539,-131 553.1,-129.6 566.8,-128.3 580.9,-132.6 594.6,-128.6 608.7,-130.5 622.9,-132.6 636.5,-135.9 650.7,-137 
	664.3,-138.3 678.5,-141.3 "/>
<rect x="-40.4" y="-395.5" class="st0" width="766.2" height="340.5"/>
<rect x="-40.4" y="-150.4" class="st0" width="13.8" height="12.5"/>
<text transform="matrix(1 0 0 1 -40.3911 -140.0792)" class="st7 st8" style="font-size:12px;">40</text>
<rect x="-40.4" y="-204.1" class="st0" width="15.1" height="12"/>
<text transform="matrix(1 0 0 1 -40.3911 -193.7638)" class="st7 st8" style="font-size:12px;">50</text>
<rect x="-40.4" y="-259.1" class="st0" width="16" height="12.9"/>
<text transform="matrix(1 0 0 1 -40.3915 -248.8341)" class="st7 st8" style="font-size:12px;">60</text>
<rect x="-40.4" y="-314.2" class="st0" width="16.9" height="13.8"/>
<text transform="matrix(1 0 0 1 -40.3914 -303.9034)" class="st7 st8" style="font-size:12px;">70</text>
<rect x="-40.4" y="-364.9" class="st0" width="25.8" height="18.3"/>
<text transform="matrix(1 0 0 1 -40.3913 -354.5714)" class="st7 st8" style="font-size:12px;">80%</text>
<rect x="-0.2" y="-88.8" class="st0" width="25.7" height="7.4"/>
<text transform="matrix(1 0 0 1 -0.1662 -83.4269)" class="st7 st8" style="font-size:6.2432px;">Jan 2019</text>
<text transform="matrix(1 0 0 1 83.3587 -83.4269)" class="st7 st8" style="font-size:6.2432px;">Jul 2019</text>
<rect x="166.2" y="-88.8" class="st0" width="25.7" height="7.4"/>
<text transform="matrix(1 0 0 1 166.1649 -83.4269)" class="st7 st8" style="font-size:6.2432px;">Jan 2020</text>
<text transform="matrix(1 0 0 1 207.8089 -83.4269)" class="st7 st8" style="font-size:6.2432px;">Apr 2020</text>
<text transform="matrix(1 0 0 1 250.1507 -83.4269)" class="st7 st8" style="font-size:6.2432px;">Jul 2020</text>
<rect x="333" y="-88.8" class="st0" width="25.7" height="7.4"/>
<text transform="matrix(1 0 0 1 332.9573 -83.4269)" class="st7 st8" style="font-size:6.2432px;">Jan 2021</text>
<text transform="matrix(1 0 0 1 416.4808 -83.4269)" class="st7 st8" style="font-size:6.2432px;">Jul 2021</text>
<rect x="499.3" y="-88.8" class="st0" width="25.7" height="7.4"/>
<text transform="matrix(1 0 0 1 499.2894 -83.4269)" class="st7 st8" style="font-size:6.2432px;">Jan 2022</text>
<text transform="matrix(1 0 0 1 582.8138 -83.4269)" class="st7 st8" style="font-size:6.2432px;">Jul 2022</text>
<rect x="665.6" y="-88.8" class="st0" width="25.7" height="7.4"/>
<text transform="matrix(1 0 0 1 665.6204 -83.4269)" class="st7 st8" style="font-size:6.2432px;">Jan 2023</text>
<text transform="matrix(1 0 0 1 -36.0056 -389.1106)" class="st8" style="font-size:11px;">But people with disabilities are only half as likely to be employed or are actively finding work, based on labor force participation rate figures</text>
<rect x="-36.9" y="-420.9" class="st0" width="507.9" height="23.4"/>
<text transform="matrix(1 0 0 1 -36.8531 -405.4146)" class="st13" style="font-size:18px;">More people with disabilities are entering the labor force</text>
<text transform="matrix(1 0 0 1 -40.3913 -57.1614)" class="st8" style="font-size:6.2432px;">Source: Bureau of Labor Statistics, Employment Situation Report</text>
<rect x="197.6" y="-359.8" class="st4" width="46.9" height="268.4"/>
<text transform="matrix(1 0 0 1 202.6444 -369.1616)"><tspan x="0" y="0" class="st15" style="font-size:11px;">COVID-19 </tspan><tspan x="0" y="8" class="st15" style="font-size:11px;">starts</tspan></text>
<text transform="matrix(1 0 0 1 465.524 -319.6284)" class="st13" style="font-size:11px;">People without disabilities</text>
<text transform="matrix(1 0 0 1 470.2085 -161.7802)" class="st13" style="font-size:11px;">People with disabilities</text>
<text transform="matrix(1 0 0 1 25.9479 -319.2703)"><tspan x="0" y="0" class="st8" style="font-size:11px;">Labor force participation rate</tspan><tspan x="0" y="11" class="st8" style="font-size:11px;">in Jan 2019: </tspan><tspan x="63" y="11" class="st13" style="font-size:11px;">77.0%</tspan></text>
<text transform="matrix(1 0 0 1 38.755 -116.5842)" class="st13" style="font-size:11px;">33.1%</text>
<g>
	<g>
		<path class="st5" d="M20.7-309.9c-3.1-0.1-11.9-0.5-18.8-5.2c-1.4-0.9-3.6-2.5-5.3-5.3c-0.4-0.6-2.4-3.8-2.4-7.2
			c0-4,2.7-7.9,7-10.7"/>
		<g>
			<path class="st6" d="M5.2-340.4c-1.5,1.7-3.3,4.1-4.1,6.1L0.7-338l-2.8-2.6C0-340.1,3-340.1,5.2-340.4z"/>
		</g>
	</g>
</g>
<g>
	<g>
		<path class="st5" d="M41.9-127.7c-1.7-1.5-6.8-5.5-13.8-5.3c-1.4,0-3.6,0.1-6.6,1.5c-0.6,0.3-4,1.8-6.4,4.4
			c-2.6,2.8-3.9,6.8-3.8,10.8"/>
		<g>
			<path class="st6" d="M12.2-111.9c-1.1-2-2.9-4.4-4.5-5.8l3.7,0.7l3.3-1.8C13.6-117,12.7-114.2,12.2-111.9z"/>
		</g>
	</g>
</g>
<g>
	<g>
		<path class="st5" d="M685.3-361c-2.3,0-8.8,0.2-13.8,2.4c-1,0.4-2.6,1.1-3.9,2.4c-0.3,0.3-1.8,1.8-1.8,3.3c0,1.6,1.4,3.1,3.9,4.3"
			/>
		<g>
			<path class="st6" d="M673.9-347c-2.3,0-5.2,0.4-7.2,1.1l2.4-2.9l0-3.8C670.2-350.7,672.2-348.5,673.9-347z"/>
		</g>
	</g>
</g>
<text transform="matrix(1 0 0 1 678.4689 -376.6967)"><tspan x="0" y="0" class="st13" style="font-size:11px;">76.9%</tspan><tspan x="0" y="11" class="st8" style="font-size:11px;">(-0.1% pt)</tspan></text>
<text transform="matrix(1 0 0 1 673.2871 -177.3222)"><tspan x="0" y="0" class="st13" style="font-size:11px;">39.7%</tspan><tspan x="0" y="11" class="st8" style="font-size:11px;">(+6.6% pt)</tspan></text>
<g>
	<g>
		<path class="st5" d="M685.3-159c-2.3,0-8.8,0.2-13.8,2.4c-1,0.4-2.6,1.1-3.9,2.4c-0.3,0.3-1.8,1.8-1.8,3.3c0,1.6,1.4,3.1,3.9,4.3"
			/>
		<g>
			<path class="st6" d="M673.9-145.1c-2.3,0-5.2,0.4-7.2,1.1l2.4-2.9l0-3.8C670.2-148.7,672.2-146.6,673.9-145.1z"/>
		</g>
	</g>
</g>
<rect x="4.4" y="24.6" class="st0" width="373.2" height="276.4"/>
<rect x="4.4" y="24.6" class="st0" width="373.2" height="276.4"/>
<rect x="14" y="52.6" class="st0" width="356.7" height="218.8"/>
<line class="st1" x1="22.4" y1="228.4" x2="356.5" y2="228.4"/>
<line class="st1" x1="22.4" y1="52.6" x2="356.5" y2="52.6"/>
<line class="st1" x1="32.2" y1="270.4" x2="32.2" y2="51.6"/>
<line class="st1" x1="72.4" y1="270.4" x2="72.4" y2="51.6"/>
<line class="st1" x1="113.2" y1="270.4" x2="113.2" y2="51.6"/>
<line class="st1" x1="133.4" y1="270.4" x2="133.4" y2="51.6"/>
<line class="st1" x1="153.6" y1="270.4" x2="153.6" y2="51.6"/>
<line class="st1" x1="194.5" y1="270.4" x2="194.5" y2="51.6"/>
<line class="st1" x1="234.6" y1="270.4" x2="234.6" y2="51.6"/>
<line class="st1" x1="275.5" y1="270.4" x2="275.5" y2="51.6"/>
<line class="st1" x1="315.6" y1="270.4" x2="315.6" y2="51.6"/>
<line class="st1" x1="356.5" y1="270.4" x2="356.5" y2="51.6"/>
<polyline class="st2" points="32.2,66 39.1,64.9 45.3,64.7 52.2,66.2 58.9,65.1 65.7,61.8 72.4,61.6 79.3,63.3 86.2,63.6 92.8,62.5 
	99.7,63.1 106.3,64 113.2,63.8 120.1,62.5 126.5,65.7 133.4,80 140.1,75.2 147,69 153.6,68.2 160.5,69.5 167.4,71 174,68.8 
	180.9,70.4 187.6,71 194.5,71.9 201.3,69.7 207.6,69.3 214.4,69 221.1,68.4 228,64.7 234.6,62.9 241.5,66.4 248.4,67.5 255,67.1 
	261.9,66.6 268.6,67.3 275.5,68.2 282.3,66 288.6,64.7 295.4,66 302.1,64.9 309,62.9 315.6,62 322.5,63.6 329.4,65.1 336.1,65.1 
	342.9,65.7 349.6,66.2 356.5,66.4 "/>
<polyline class="st3" points="32.2,258.9 39.1,257.8 45.3,253.7 52.2,257.4 58.9,259.8 65.7,254.8 72.4,254.1 79.3,251.7 
	86.2,256.1 92.8,258.1 99.7,255.9 106.3,258.1 113.2,256.7 120.1,255.6 126.5,250.8 133.4,260.5 140.1,254.1 147,253.2 153.6,259.4 
	160.5,256.5 167.4,260.5 174,257.8 180.9,256.7 187.6,258.5 194.5,259.8 201.3,257.2 207.6,257.6 214.4,256.3 221.1,253.7 
	228,248.4 234.6,249.3 241.5,247.5 248.4,244.2 255,242.5 261.9,238.5 268.6,242.7 275.5,239.4 282.3,243.1 288.6,238.3 
	295.4,239.4 302.1,240.5 309,237 315.6,240.3 322.5,238.7 329.4,237 336.1,234.3 342.9,233.4 349.6,232.3 356.5,229.9 "/>
<rect x="4.4" y="24.6" class="st0" width="373.2" height="276.4"/>
<rect x="4.4" y="223.6" class="st0" width="12.6" height="10.1"/>
<text transform="matrix(0.9 0 0 1 4.372 231.9127)" class="st7 st8 st9">40</text>
<rect x="4.4" y="180" class="st0" width="13" height="9.7"/>
<text transform="matrix(0.9 0 0 1 4.372 188.3414)" class="st7 st8 st9">50</text>
<rect x="4.4" y="135.3" class="st0" width="14.1" height="10.5"/>
<text transform="matrix(0.9 0 0 1 4.372 143.6461)" class="st7 st8 st9">60</text>
<rect x="4.4" y="90.6" class="st0" width="15.4" height="11.2"/>
<text transform="matrix(0.9 0 0 1 4.372 98.9508)" class="st7 st8 st9">70</text>
<rect x="3.4" y="49.5" class="st0" width="25.8" height="14.9"/>
<text transform="matrix(0.9 0 0 1 3.372 57.8277)" class="st7 st8 st9">80%</text>
<rect x="26" y="272.5" class="st0" width="20.5" height="11.6"/>
<text transform="matrix(0.9 0 0 1 25.9628 276.8941)" class="st10"><tspan x="0" y="0" class="st7 st8 st11">Jan </tspan><tspan x="0" y="6.1" class="st7 st8 st11">2019</tspan></text>
<text transform="matrix(0.9 0 0 1 66.6425 276.8931)" class="st10"><tspan x="0" y="0" class="st7 st8 st11">Jul </tspan><tspan x="0" y="6.1" class="st7 st8 st11">2019</tspan></text>
<rect x="107" y="272.5" class="st0" width="13.7" height="13.9"/>
<text transform="matrix(0.9 0 0 1 106.9716 276.8941)" class="st10"><tspan x="0" y="0" class="st7 st8 st11">Jan </tspan><tspan x="0" y="6.1" class="st7 st8 st11">2020</tspan></text>
<text transform="matrix(0.9 0 0 1 127.2538 276.8931)" class="st10"><tspan x="0" y="0" class="st7 st8 st11">Apr </tspan><tspan x="0" y="6.1" class="st7 st8 st11">2020</tspan></text>
<text transform="matrix(0.9 0 0 1 147.8754 276.8931)" class="st10"><tspan x="0" y="0" class="st7 st8 st11">Jul </tspan><tspan x="0" y="6.1" class="st7 st8 st11">2020</tspan></text>
<rect x="188.2" y="272.5" class="st0" width="12.5" height="13.2"/>
<text transform="matrix(0.9 0 0 1 188.205 276.8941)" class="st10"><tspan x="0" y="0" class="st7 st8 st11">Jan </tspan><tspan x="0" y="6.1" class="st7 st8 st11">2021</tspan></text>
<text transform="matrix(0.9 0 0 1 228.8837 276.8931)" class="st10"><tspan x="0" y="0" class="st7 st8 st11">Jul </tspan><tspan x="0" y="6.1" class="st7 st8 st11">2021</tspan></text>
<rect x="269.2" y="272.5" class="st0" width="12.5" height="13.2"/>
<text transform="matrix(0.9 0 0 1 269.2143 276.8941)" class="st10"><tspan x="0" y="0" class="st7 st8 st11">Jan </tspan><tspan x="0" y="6.1" class="st7 st8 st11">2022</tspan></text>
<text transform="matrix(0.9 0 0 1 309.8935 276.8931)" class="st10"><tspan x="0" y="0" class="st7 st8 st11">Jul </tspan><tspan x="0" y="6.1" class="st7 st8 st11">2022</tspan></text>
<rect x="350.2" y="272.5" class="st0" width="12.5" height="12.5"/>
<text transform="matrix(0.9 0 0 1 350.2231 276.8941)" class="st10"><tspan x="0" y="0" class="st7 st8 st11">Jan </tspan><tspan x="0" y="6.1" class="st7 st8 st11">2023</tspan></text>
<text transform="matrix(0.9 0 0 1 7.5077 27.7965)" class="st8 st12">But people with disabilities are only half as likely to be employed or are actively finding work</text>
<rect x="7.1" y="3" class="st0" width="363.3" height="19"/>
<text transform="matrix(0.9 0 0 1 7.0951 15.564)" class="st13 st14">More people with disabilities are entering the labor force</text>
<text transform="matrix(0.9 0 0 1 3.372 297.2105)" class="st8 st11">Source: Bureau of Labor Statistics, Employment Situation Report</text>
<rect x="122.3" y="52.6" class="st4" width="22.8" height="217.9"/>
<text transform="matrix(0.9 0 0 1 124.7382 43.9869)"><tspan x="0" y="0" class="st15 st12">COVID-19 </tspan><tspan x="0" y="6.5" class="st15 st12">starts</tspan></text>
<text transform="matrix(0.9 0 0 1 188.3368 85.189)" class="st13 st12">People without disabilities</text>
<text transform="matrix(0.9 0 0 1 189.7567 237.7273)" class="st13 st12">People with disabilities</text>
<text transform="matrix(0.9 0 0 1 38.6816 94.4078)" class="st13 st12">77.0%</text>
<text transform="matrix(0.9 0 0 1 44.9189 249.982)" class="st13 st12">33.1%</text>
<g>
	<g>
		<path class="st5" d="M36.1,93.1c-1.5,0-5.8-0.4-9.2-4.2c-0.7-0.8-1.7-2-2.6-4.3c-0.2-0.5-1.2-3.1-1.2-5.9c0-2.5,0.8-5.1,2.2-7.1"
			/>
		<g>
			<path class="st6" d="M28.6,68.3c-0.9,2.1-1.8,4.9-1.9,7.1L25,72l-3.5-1.5C23.7,70.3,26.5,69.3,28.6,68.3z"/>
		</g>
	</g>
</g>
<g>
	<g>
		<path class="st5" d="M46.5,240.9c-0.8-1.2-3.3-4.5-6.7-4.3c-0.7,0-1.8,0.1-3.2,1.2c-0.3,0.2-1.9,1.4-3.1,3.6
			c-1.1,2.1-1.8,4.9-1.8,7.9"/>
		<g>
			<path class="st6" d="M32,253.8c-1-2.1-2.5-4.6-4.1-6.1l3.7,1l3.5-1.6C33.8,248.8,32.6,251.6,32,253.8z"/>
		</g>
	</g>
</g>
<g>
	<g>
		<path class="st5" d="M359.8,51.6c-1.1,0-4.3,0.2-6.7,1.9c-0.5,0.3-1.3,0.9-1.9,2c-0.1,0.2-0.9,1.4-0.9,2.7c0,0.6,0.2,1.2,0.5,1.8"
			/>
		<g>
			<path class="st6" d="M354.3,63c-2.1-0.8-5-1.6-7.1-1.7l3.3-1.8l1.4-3.5C352.2,58.2,353.2,60.9,354.3,63z"/>
		</g>
	</g>
</g>
<text transform="matrix(0.9 0 0 1 339.3474 39.1304)"><tspan x="0" y="0" class="st13 st12">76.9%</tspan><tspan x="0" y="8.9" class="st8 st12">(-0.1% pt)</tspan></text>
<text transform="matrix(0.9 0 0 1 336.7504 200.6861)"><tspan x="0" y="0" class="st13 st12">39.7%</tspan><tspan x="0" y="8.9" class="st8 st12">(+6.6% pt)</tspan></text>
<g>
	<g>
		<path class="st5" d="M359.8,215.5c-1.1,0-4.3,0.2-6.7,1.9c-0.5,0.3-1.3,0.9-1.9,2c-0.1,0.2-0.9,1.4-0.9,2.7c0,0.6,0.2,1.2,0.5,1.8
			"/>
		<g>
			<path class="st6" d="M354.3,226.8c-2.1-0.8-5-1.6-7.1-1.7l3.3-1.8l1.4-3.5C352.2,222.1,353.2,224.8,354.3,226.8z"/>
		</g>
	</g>
</g>
<text transform="matrix(0.9 0 0 1 6.372 43.9869)" class="st16 st12">Labor force participation rate</text>
</svg>
