<?xml version="1.0" encoding="utf-8"?>
<!-- Generator: Adobe Illustrator 27.2.0, SVG Export Plug-In . SVG Version: 6.00 Build 0)  -->
<svg version="1.1" id="Layer_1" xmlns="http://www.w3.org/2000/svg" xmlns:xlink="http://www.w3.org/1999/xlink" x="0px" y="0px"
	 viewBox="0 0 380 300" style="enable-background:new 0 0 380 300;" xml:space="preserve">
<style type="text/css">
	.st0{fill:none;stroke:#EBEBEB;stroke-width:1.07;stroke-linejoin:round;stroke-miterlimit:10;}
	.st1{fill:none;}
	.st2{font-family:'ArialMT';}
	.st3{font-size:7.2039px;}
	.st4{fill:none;stroke:#33669A;stroke-width:1.07;stroke-linejoin:round;stroke-miterlimit:10;}
	.st5{fill:none;stroke:#7DB2E0;stroke-width:1.07;stroke-linejoin:round;stroke-miterlimit:10;}
	.st6{fill:#4D4D4D;}
	.st7{font-size:8.0044px;}
	.st8{font-size:6px;}
	.st9{font-size:7px;}
	.st10{enable-background:new    ;}
	.st11{font-family:'Arial-BoldMT';}
	.st12{font-size:9.5px;}
	.st13{font-size:3.2353px;}
	.st14{opacity:0.3;fill:#686667;}
	.st15{fill:none;stroke:#231F20;stroke-width:0.5;stroke-miterlimit:10;}
	.st16{fill:#231F20;}
	.st17{font-family:'Arial-ItalicMT';}
	.st18{font-size:8px;}
</style>
<line class="st0" x1="17.5" y1="205.7" x2="357.9" y2="205.7"/>
<rect x="2.7" y="129.9" class="st1" width="356.1" height="274.1"/>
<rect x="2.7" y="129.9" class="st1" width="356.1" height="274.1"/>
<text transform="matrix(0.9 0 0 1 2.7211 135.0383)" class="st2 st3">x</text>
<rect x="16.3" y="48.6" class="st1" width="340.4" height="217"/>
<line class="st0" x1="18.2" y1="255.7" x2="358.6" y2="255.7"/>
<path id="SVGID_x5F_1_x5F_" class="st1" d="M220,199.5h340.4"/>
<text><textPath  xlink:href="#SVGID_x5F_1_x5F_" startOffset="14.3372%">
<tspan  class="st11 st7">People without disabilities </tspan></textPath>
</text>
<line class="st0" x1="18.2" y1="157.1" x2="358.6" y2="157.1"/>
<line class="st0" x1="18.2" y1="107.8" x2="358.6" y2="107.8"/>
<line class="st0" x1="18.2" y1="58.5" x2="358.6" y2="58.5"/>
<polyline class="st4" points="33.6,213.8 40.2,217.3 46.1,218.7 52.7,223.7 59.1,222.7 65.6,218.7 72,217.3 78.5,218.7 85.1,223.2 
	91.5,223.2 98,224.2 104.4,223.7 111,217.3 117.5,219.7 123.7,212.3 130.2,115.2 136.6,129.5 143.1,146.2 149.5,152.7 156.1,173.4 
	162.6,181.3 169,191.6 175.6,194.6 181.9,192.6 188.5,189.7 195,193.1 201,196.1 207.5,200 213.9,203.5 220.5,197 226.8,202.5 
	233.4,205.4 239.9,211.8 246.3,215.3 252.9,218.7 259.2,220.2 265.8,213.8 272.4,216.8 278.3,221.2 284.8,225.2 291.2,223.7 
	297.8,219.2 304.1,219.7 310.7,219.7 317.3,224.7 323.6,223.2 330.2,223.7 336.5,224.7 343.1,218.7 "/>
<polyline class="st5" points="33.6,161 40.2,158.6 46.1,169.4 52.7,186.7 59.1,193.1 65.6,171.9 72,171.4 78.5,179.8 85.1,190.1 
	91.5,181.3 98,180.8 104.4,177.8 111,172.4 117.5,170.9 123.7,165.5 130.2,61.4 136.6,67.8 143.1,83.6 149.5,107.8 156.1,113.2 
	162.6,122.6 169,134.4 175.6,123.6 181.9,142.8 188.5,131.9 195,118.1 201,145.8 207.5,153.6 213.9,145.8 220.5,147.7 226.8,131 
	233.4,142.3 239.9,160.1 246.3,158.1 252.9,175.8 259.2,171.9 265.8,160.6 272.4,160.1 278.3,159.6 284.8,167 291.2,178.3 
	297.8,173.4 304.1,178.3 310.7,177.8 317.3,173.9 323.6,174.9 330.2,196.1 336.5,203 343.1,181.8 "/>
<rect x="19.9" y="99.7" class="st1" width="356.1" height="274.1"/>
<rect x="11.5" y="250.8" class="st1" width="5.5" height="9.9"/>
<text transform="matrix(0.9 0 0 1 11.5389 257.7085)" class="st6 st2 st7">0</text>
<rect x="11.3" y="201.5" class="st1" width="5.2" height="9.9"/>
<text transform="matrix(0.9 0 0 1 11.3309 208.4028)" class="st6 st2 st7">5</text>
<rect x="8.4" y="152.5" class="st1" width="8.1" height="10.4"/>
<text transform="matrix(0.9 0 0 1 8.4457 159.3921)" class="st6 st2 st7">10</text>
<rect x="7.1" y="102.2" class="st1" width="9.5" height="9"/>
<text transform="matrix(0.9 0 0 1 7.0829 109.0786)" class="st6 st2 st7">15</text>
<rect x="2.5" y="54.2" class="st1" width="16.7" height="15.7"/>
<text transform="matrix(0.9 0 0 1 2.4794 61.0679)" class="st6 st2 st7">20%</text>
<text transform="matrix(0.9 0 0 1 41.9671 268.545)" class="st6 st2 st8">Apr 2019</text>
<text transform="matrix(0.9 0 0 1 80.7303 268.545)" class="st6 st2 st8">Oct 2019</text>
<text transform="matrix(0.9 0 0 1 119.4891 268.545)" class="st6 st2 st8">Apr 2020</text>
<text transform="matrix(0.9 0 0 1 158.2508 268.545)" class="st6 st2 st8">Oct 2020</text>
<text transform="matrix(0.9 0 0 1 196.7982 268.545)" class="st6 st2 st8">Apr 2021</text>
<text transform="matrix(0.9 0 0 1 235.5604 268.545)" class="st6 st2 st8">Oct 2021</text>
<text transform="matrix(0.9 0 0 1 274.1078 268.545)" class="st6 st2 st8">Apr 2022</text>
<text transform="matrix(0.9 0 0 1 311.8714 268.545)" class="st6 st2 st8">Oct 2022</text>
<rect x="340" y="262.8" class="st1" width="23.8" height="10.4"/>
<text transform="matrix(0.9 0 0 1 340.0492 267.9066)" class="st6 st2 st8">Jan 2023</text>
<text transform="matrix(0.9 0 0 1 6.1981 33.1333)" class="st2 st9">People with disabilities are about twice as likely to be unemployed compared to those without disabilities</text>
<rect x="5.7" y="4.9" class="st1" width="470.4" height="23.3"/>
<text transform="matrix(1 0 0 1 5.721 13.0425)" class="st10"><tspan x="0" y="0" class="st11 st12">Unemployment rate of people with disabilities has fallen from COVID-19 highs,</tspan><tspan x="0" y="11" class="st11 st12">but still higher than those with no disabilities</tspan></text>
<text transform="matrix(0.9 0 0 1 3.4163 295.0002)" class="st2 st13">Source: Bureau of Labor Statistics, Employment Situation Report</text>
<rect x="124.3" y="58.5" class="st14" width="15.5" height="197.3"/>
<rect x="115.8" y="47.9" class="st1" width="56.8" height="12.7"/>
<text transform="matrix(0.9 0 0 1 115.7761 52.9605)" class="st2 st9">COVID-19 starts</text>
<text transform="matrix(0.9 0 0 1 238.0126 143.6812)" class="st11 st7">People with disabilities </text>
<text transform="matrix(0.9 0 0 1 96.0813 150)" class="st11 st7">7.6%</text>
<text transform="matrix(0.9 0 0 1 102.5638 199.5327)" class="st11 st7">3.3%</text>
<path d="M90.5,170.8"/>
<g>
	<g>
		<path class="st15" d="M97.1,152.3c-3.2-1.1-6.5,1.9-7.8,7.1c-1,4.1-0.5,8.9,1.1,12.2"/>
		<g>
			<path class="st16" d="M92,174.2c-1.2-0.9-2.9-1.9-4.3-2.3l2.5-0.5l1.6-2C91.6,170.7,91.7,172.7,92,174.2z"/>
		</g>
	</g>
</g>
<g>
	<g>
		<path class="st15" d="M100.4,201.2c-3-1.1-6.1,1.8-7.3,6.7c-0.9,3.8-0.5,8.2,0.9,11.3"/>
		<g>
			<path class="st16" d="M95.7,221.8c-1.2-0.9-2.9-2-4.3-2.4l2.5-0.5l1.6-2C95.2,218.3,95.4,220.3,95.7,221.8z"/>
		</g>
	</g>
</g>
<text transform="matrix(0.9 0 0 1 326.7591 142.0396)"><tspan x="0" y="0" class="st2 st7">Jan 2023: </tspan><tspan x="37.4" y="0" class="st11 st7">7.5%</tspan></text>
<text transform="matrix(0.9 0 0 1 348.9349 215.478)" class="st11 st7">3.3%</text>
<g>
	<g>
		<path class="st15" d="M349.1,147.2c-4.7-1.6-9.5,2.7-11.3,10.3c-1.6,6.5-0.6,14.1,2.2,19"/>
		<g>
			<path class="st16" d="M341.8,179c-1.2-0.9-3-1.8-4.4-2.2l2.4-0.6l1.5-2.1C341.1,175.6,341.4,177.5,341.8,179z"/>
		</g>
	</g>
</g>
<g>
	<g>
		<path class="st15" d="M350.9,207.2c-2-3.8-5.4-4.6-7.9-1.9c-2.1,2.2-3.2,6.3-2.9,10.3"/>
		<g>
			<path class="st16" d="M340.5,218.7c-0.7-1.3-1.8-3-2.9-3.9l2.5,0.6l2.2-1.2C341.6,215.3,340.9,217.2,340.5,218.7z"/>
		</g>
	</g>
</g>
<text transform="matrix(0.9 0 0 1 132.0985 115.6841)"><tspan x="0" y="0" class="st2 st7"> </tspan><tspan x="2.2" y="0" class="st11 st7">14.3%</tspan></text>
<text transform="matrix(0.9 0 0 1 137.6278 67.1518)"><tspan x="0" y="0" class="st2 st7">Apr 2020: </tspan><tspan x="36.9" y="0" class="st11 st7">19.7%</tspan></text>
<line class="st0" x1="25" y1="-170.2" x2="703.2" y2="-170.2"/>
<path class="st1" d="M10.5-265.6c-0.1,1.8-1.1,3.4-2.9,4.2c0.9,2.4-0.4,5.4-2.6,6.5c0,5.8-3.4,9.7-8.8,11.6
	c-0.2,0.1-0.4,0.1-0.6,0.2V79.5h709.6v-345.1H10.5z"/>
<rect x="22.7" y="-367.9" class="st1" width="678.2" height="273.2"/>
<line class="st0" x1="26.4" y1="-107.2" x2="704.6" y2="-107.2"/>
<path id="SVGID_x5F_00000036947284420781268300000011068516447713956514_x5F_" class="st1" d="M428.5-177.9h678.2"/>
<text><textPath  xlink:href="#SVGID_x5F_00000036947284420781268300000011068516447713956514_x5F_" startOffset="14.3372%">
<tspan  class="st11" style="font-size:10.0759px;">People without disabilities </tspan></textPath>
</text>
<line class="st0" x1="26.4" y1="-231.4" x2="704.6" y2="-231.4"/>
<line class="st0" x1="26.4" y1="-355.5" x2="704.6" y2="-355.5"/>
<polyline class="st4" points="57.2,-160 70.3,-155.6 82.1,-153.7 95.2,-147.5 107.9,-148.8 121,-153.7 133.6,-155.6 146.7,-153.7 
	159.8,-148.2 172.4,-148.2 185.5,-146.9 198.2,-147.5 211.3,-155.6 224.4,-152.5 236.6,-161.8 249.7,-284.1 262.3,-266.1 
	275.4,-245 288.1,-236.9 301.2,-210.9 314.2,-200.9 326.9,-187.9 340,-184.2 352.6,-186.7 365.7,-190.4 378.8,-186 390.6,-182.3 
	403.7,-177.3 416.4,-173 429.4,-181.1 442.1,-174.2 455.2,-170.5 468.3,-162.4 480.9,-158.1 494,-153.7 506.7,-151.9 519.8,-160 
	532.8,-156.2 544.6,-150.6 557.7,-145.7 570.4,-147.5 583.5,-153.1 596.1,-152.5 609.2,-152.5 622.3,-146.3 635,-148.2 648,-147.5 
	660.7,-146.3 673.8,-153.7 "/>
<polyline class="st5" points="57.2,-226.4 70.3,-229.5 82.1,-215.8 95.2,-194.1 107.9,-186 121,-212.7 133.6,-213.3 146.7,-202.8 
	159.8,-189.8 172.4,-200.9 185.5,-201.5 198.2,-205.3 211.3,-212.1 224.4,-214 236.6,-220.8 249.7,-351.8 262.3,-343.7 
	275.4,-323.9 288.1,-293.4 301.2,-286.6 314.2,-274.8 326.9,-259.9 340,-273.6 352.6,-249.4 365.7,-263 378.8,-280.4 390.6,-245.6 
	403.7,-235.7 416.4,-245.6 429.4,-243.1 442.1,-264.3 455.2,-250 468.3,-227.6 480.9,-230.1 494,-207.8 506.7,-212.7 519.8,-227 
	532.8,-227.6 544.6,-228.2 557.7,-218.9 570.4,-204.7 583.5,-210.9 596.1,-204.7 609.2,-205.3 622.3,-210.2 635,-209 648,-182.3 
	660.7,-173.6 673.8,-200.3 "/>
<rect x="29.9" y="-303.6" class="st1" width="709.6" height="345.1"/>
<rect x="13.2" y="-113.4" class="st1" width="10.9" height="12.5"/>
<text transform="matrix(0.9 0 0 1 13.1968 -104.7056)" class="st6 st2" style="font-size:10.0759px;">0</text>
<rect x="12.8" y="-175.4" class="st1" width="10.4" height="12.5"/>
<text transform="matrix(0.9 0 0 1 12.7818 -166.772)" class="st6 st2" style="font-size:10.0759px;">5</text>
<rect x="7" y="-237.1" class="st1" width="16.1" height="13.1"/>
<text transform="matrix(0.9 0 0 1 7.0337 -228.4663)" class="st6 st2" style="font-size:10.0759px;">10</text>
<rect x="4.3" y="-300.4" class="st1" width="18.8" height="11.3"/>
<text transform="matrix(0.9 0 0 1 4.3184 -291.8003)" class="st6 st2" style="font-size:10.0759px;">15</text>
<rect x="-4.9" y="-360.9" class="st1" width="33.3" height="19.8"/>
<text transform="matrix(0.9 0 0 1 -4.8535 -352.2358)" class="st6 st2" style="font-size:10.0759px;">20%</text>
<text transform="matrix(0.9 0 0 1 73.8209 -91.0649)" class="st6 st2" style="font-size:7.5528px;">Apr 2019</text>
<text transform="matrix(0.9 0 0 1 151.0533 -91.0649)" class="st6 st2" style="font-size:7.5528px;">Oct 2019</text>
<text transform="matrix(0.9 0 0 1 228.2759 -91.0649)" class="st6 st2" style="font-size:7.5528px;">Apr 2020</text>
<text transform="matrix(0.9 0 0 1 305.5045 -91.0649)" class="st6 st2" style="font-size:7.5528px;">Oct 2020</text>
<text transform="matrix(0.9 0 0 1 382.3052 -91.0649)" class="st6 st2" style="font-size:7.5528px;">Apr 2021</text>
<text transform="matrix(0.9 0 0 1 459.5347 -91.0649)" class="st6 st2" style="font-size:7.5528px;">Oct 2021</text>
<text transform="matrix(0.9 0 0 1 536.336 -91.0649)" class="st6 st2" style="font-size:7.5528px;">Apr 2022</text>
<text transform="matrix(0.9 0 0 1 611.5762 -91.0649)" class="st6 st2" style="font-size:7.5528px;">Oct 2022</text>
<rect x="667.7" y="-98.3" class="st1" width="47.4" height="13.1"/>
<text transform="matrix(0.9 0 0 1 667.7169 -91.8667)" class="st6 st2" style="font-size:7.5528px;">Jan 2023</text>
<text transform="matrix(0.9 0 0 1 -12.8315 -379.1616)" class="st2" style="font-size:12px;">People with disabilities are about twice as likely to be unemployed compared to those without disabilities</text>
<rect x="-14.6" y="-427.8" class="st1" width="937.3" height="40.6"/>
<text transform="matrix(0.9 0 0 1 -14.5708 -411.4829)" class="st10"><tspan x="0" y="0" class="st11" style="font-size:19px;">Unemployment rate of people with disabilities has fallen from COVID-19 highs,</tspan><tspan x="0" y="19" class="st11" style="font-size:19px;">but still higher than those with no disabilities</tspan></text>
<text transform="matrix(0.9 0 0 1 -2.9877 -57.7622)" class="st2" style="font-size:4.0725px;">Source: Bureau of Labor Statistics, Employment Situation Report</text>
<rect x="237.9" y="-355.5" class="st14" width="30.9" height="248.3"/>
<rect x="228.3" y="-367.5" class="st1" width="113.2" height="15.9"/>
<text transform="matrix(0.9 0 0 1 228.2655 -361.2319)" class="st2" style="font-size:8.8116px;">COVID-19 starts</text>
<text transform="matrix(0.9 0 0 1 464.4195 -248.2427)" class="st11" style="font-size:10.0759px;">People with disabilities </text>
<text transform="matrix(0.9 0 0 1 97.3423 -253.4722)"><tspan x="0" y="0" class="st2" style="font-size:10.0759px;">Unemployment rate</tspan><tspan x="0" y="10.1" class="st2" style="font-size:10.0759px;">in Oct 2019: </tspan><tspan x="57.1" y="10.1" class="st11" style="font-size:10.0759px;">7.6%</tspan></text>
<text transform="matrix(0.9 0 0 1 194.5533 -177.937)" class="st11" style="font-size:10.0759px;">3.3%</text>
<path d="M170.6-214.1"/>
<g>
	<g>
		<path class="st15" d="M183.7-237.4c-6.5-1.4-13,2.4-15.5,9c-2.2,5.7-0.9,12.3,3.1,16.6"/>
		<g>
			<path class="st16" d="M173.6-209.9c-1.4-0.6-3.3-1.1-4.8-1.1l2.2-1.2l0.9-2.3C172.2-213.1,172.9-211.2,173.6-209.9z"/>
		</g>
	</g>
</g>
<g>
	<g>
		<path class="st15" d="M190.3-175.8c-6.1-1.3-12.2,2.2-14.5,8.4c-2,5.3-0.8,11.4,2.8,15.4"/>
		<g>
			<path class="st16" d="M180.8-150c-1.4-0.6-3.3-1.1-4.8-1.1l2.2-1.2l1-2.3C179.4-153.2,180.1-151.3,180.8-150z"/>
		</g>
	</g>
</g>
<text transform="matrix(0.9 0 0 1 641.2383 -250.3101)"><tspan x="0" y="0" class="st2" style="font-size:10.0759px;">Jan 2023: </tspan><tspan x="47.1" y="0" class="st11" style="font-size:10.0759px;">7.5%</tspan></text>
<text transform="matrix(0.9 0 0 1 685.42 -157.8657)" class="st11" style="font-size:10.0759px;">3.3%</text>
<g>
	<g>
		<path class="st15" d="M685.8-243.8c-9.4-2.1-18.8,3.5-22.5,13c-3.4,8.8-1,19,5.5,25.1"/>
		<g>
			<path class="st16" d="M671.1-203.8c-1.4-0.5-3.4-0.9-4.8-0.9l2.2-1.3l0.9-2.4C669.6-206.9,670.4-205.1,671.1-203.8z"/>
		</g>
	</g>
</g>
<g>
	<g>
		<path class="st15" d="M689.4-168.2c-4.1-4.8-10.7-5.7-15.7-2.3c-4.3,2.9-6.5,8.5-5.7,13.8"/>
		<g>
			<path class="st16" d="M668.7-153.8c-0.8-1.3-2.1-2.8-3.3-3.6l2.5,0.3l2.1-1.4C669.3-157.3,668.9-155.3,668.7-153.8z"/>
		</g>
	</g>
</g>
<text transform="matrix(0.9 0 0 1 253.398 -283.4858)"><tspan x="0" y="0" class="st2" style="font-size:10.0759px;"> </tspan><tspan x="2.8" y="0" class="st11" style="font-size:10.0759px;">14.3%</tspan></text>
<text transform="matrix(0.9 0 0 1 264.4146 -344.5776)"><tspan x="0" y="0" class="st2" style="font-size:10.0759px;">Apr 2020: </tspan><tspan x="46.5" y="0" class="st11" style="font-size:10.0759px;">19.7%</tspan></text>
<text transform="matrix(0.9 0 0 1 -56.1459 162.5552)" class="st2" style="font-size:1px;">Lorem ipsum</text>
<text transform="matrix(0.9 0 0 1 3.4163 51.3802)" class="st17 st18">Unemployment rate </text>
</svg>
