<?xml version="1.0" encoding="utf-8"?>
<!-- Generator: Adobe Illustrator 27.2.0, SVG Export Plug-In . SVG Version: 6.00 Build 0)  -->
<svg version="1.1" id="Layer_1" xmlns="http://www.w3.org/2000/svg" xmlns:xlink="http://www.w3.org/1999/xlink" x="0px" y="0px"
	 viewBox="0 0 300.4 280.9" style="enable-background:new 0 0 300.4 280.9;" xml:space="preserve">
<style type="text/css">
	.st0{fill:#F4E8F3;}
	.st1{fill:#FFFFDE;}
	.st2{fill:#E2F1E0;}
	.st3{fill:#00B9D4;}
	.st4{fill:none;stroke:#000000;}
	.st5{fill:none;stroke:#000000;stroke-width:0.5;stroke-dasharray:10;}
	.st6{opacity:0.3;fill:#00B9D4;}
	.st7{font-family:'Arial-BoldMT';}
	.st8{font-size:7.6277px;}
	.st9{font-family:'ArialMT';}
	.st10{font-size:5.5805px;}
	.st11{font-size:4.3501px;}
	.st12{fill:#FFFFFF;}
	.st13{font-family:'Helvetica';}
	.st14{font-size:3.4483px;}
	.st15{font-size:6px;}
	.st16{font-size:6.4336px;}
	.st17{font-size:6.9786px;}
</style>
<path class="st0" d="M13.4-343.2c15.3,0,15.3,4.4,30.7,4.4s15.3,6.8,30.7,6.8s15.3-6,30.7-6c15.4,0,15.4-5.4,30.8-5.4
	c15.3,0,15.3-9.6,30.7-9.6c15.3,0,15.3,11.1,30.7,11.1s15.3,6.3,30.7,6.3c15.4,0,15.4,10.8,30.8,10.8c15.3,0,15.3-3.7,30.7-3.7
	c15.3,0,15.3-26.9,30.7-26.9c15.3,0,15.3-39.9,30.7-39.9c15.4,0,15.4,1.4,30.8,1.4c15.3,0,15.3-21.2,30.7-21.2
	c15.3,0,15.3,0.6,30.7,0.6c15.3,0,15.3,0.1,30.7,0.1c15.4,0,15.4,14.1,30.8,14.1c15.3,0,15.3,14.2,30.7,14.2
	c15.3,0,15.3-4.2,30.7-4.2c15.3,0,15.3-10.2,30.7-10.2c15.4,0,15.4,24.9,30.8,24.9c15.3,0,15.3,164.8,30.7,164.8
	c15.3,0,15.3-61.7,30.7-61.7c15.3,0,15.3,15.3,30.7,15.3c15.4,0,15.4,14.1,30.8,14.1v58.9c-15.4,0-15.4-10.9-30.8-10.9
	c-15.3,0-15.3-9.9-30.7-9.9c-15.3,0-15.3,63.5-30.7,63.5c-15.3,0-15.3-153.7-30.7-153.7c-15.4,0-15.4-14.2-30.8-14.2
	c-15.3,0-15.3,6.6-30.7,6.6c-15.3,0-15.3,4.3-30.7,4.3c-15.3,0-15.3-8.6-30.7-8.6c-15.4,0-15.4-12.8-30.8-12.8
	c-15.3,0-15.3,5.2-30.7,5.2c-15.3,0-15.3,0.8-30.7,0.8c-15.3,0-15.3,14.7-30.7,14.7c-15.4,0-15.4-0.4-30.8-0.4
	c-15.3,0-15.3,30.3-30.7,30.3c-15.3,0-15.3,17.7-30.7,17.7c-15.3,0-15.3,2.2-30.7,2.2c-15.4,0-15.4-8.1-30.8-8.1
	c-15.3,0-15.3-3.9-30.7-3.9s-15.3-7.2-30.7-7.2c-15.3,0-15.3,6.8-30.7,6.8c-15.4,0-15.4,5.5-30.8,5.5c-15.3,0-15.3,5.7-30.7,5.7
	s-15.3-6.7-30.7-6.7s-15.3-3.3-30.7-3.3V-343.2z"/>
<path class="st1" d="M13.4-260c15.3,0,15.3,3.3,30.7,3.3s15.3,6.7,30.7,6.7s15.3-5.7,30.7-5.7c15.4,0,15.4-5.5,30.8-5.5
	c15.3,0,15.3-6.8,30.7-6.8c15.3,0,15.3,7.2,30.7,7.2s15.3,3.9,30.7,3.9c15.4,0,15.4,8.1,30.8,8.1c15.3,0,15.3-2.2,30.7-2.2
	c15.3,0,15.3-17.7,30.7-17.7c15.3,0,15.3-30.3,30.7-30.3c15.4,0,15.4,0.4,30.8,0.4c15.3,0,15.3-14.7,30.7-14.7
	c15.3,0,15.3-0.8,30.7-0.8c15.3,0,15.3-5.2,30.7-5.2c15.4,0,15.4,12.8,30.8,12.8c15.3,0,15.3,8.6,30.7,8.6
	c15.3,0,15.3,72.6,30.7,72.6c15.3,0,15.3-3.5,30.7-3.5c15.4,0,15.4,10.7,30.8,10.7c15.3,0,15.3-133.7,30.7-133.7
	c15.3,0,15.3,147.4,30.7,147.4c15.3,0,15.3,9.9,30.7,9.9c15.4,0,15.4,10.9,30.8,10.9v52.9c-15.4,0-15.4-3.4-30.8-3.4
	c-15.3,0-15.3-3.9-30.7-3.9c-15.3,0-15.3-144.3-30.7-144.3c-15.3,0-15.3,136.4-30.7,136.4c-15.4,0-15.4-7-30.8-7
	c-15.3,0-15.3,2-30.7,2c-15.3,0-15.3-73.7-30.7-73.7c-15.3,0-15.3-3.9-30.7-3.9c-15.4,0-15.4-5.3-30.8-5.3
	c-15.3,0-15.3,0.1-30.7,0.1c-15.3,0-15.3,2.2-30.7,2.2c-15.3,0-15.3,11.8-30.7,11.8c-15.4,0-15.4,0.5-30.8,0.5
	c-15.3,0-15.3,20.3-30.7,20.3c-15.3,0-15.3,13.3-30.7,13.3c-15.3,0-15.3,1.8-30.7,1.8c-15.4,0-15.4-4.9-30.8-4.9
	c-15.3,0-15.3-3.6-30.7-3.6s-15.3-3.9-30.7-3.9c-15.3,0-15.3,5.7-30.7,5.7c-15.4,0-15.4,5.6-30.8,5.6c-15.3,0-15.3,2-30.7,2
	s-15.3-5.2-30.7-5.2s-15.3-2.5-30.7-2.5V-260z"/>
<path class="st2" d="M13.4-137.5c15.3,0,15.3,1.7,30.7,1.7s15.3,3,30.7,3s15.3-50.9,30.7-50.9c15.4,0,15.4-5.6,30.8-5.6
	c15.3,0,15.3-5.7,30.7-5.7c15.3,0,15.3,3.9,30.7,3.9s15.3,3.6,30.7,3.6c15.4,0,15.4,4.9,30.8,4.9c15.3,0,15.3-1.8,30.7-1.8
	c15.3,0,15.3-13.3,30.7-13.3c15.3,0,15.3-20.3,30.7-20.3c15.4,0,15.4-0.5,30.8-0.5c15.3,0,15.3,60,30.7,60c15.3,0,15.3-0.6,30.7-0.6
	c15.3,0,15.3,1.7,30.7,1.7c15.4,0,15.4,4.1,30.8,4.1c15.3,0,15.3,2.3,30.7,2.3c15.3,0,15.3,1.3,30.7,1.3c15.3,0,15.3-2,30.7-2
	c15.4,0,15.4,7,30.8,7c15.3,0,15.3,4.1,30.7,4.1c15.3,0,15.3,3.8,30.7,3.8c15.3,0,15.3,3.9,30.7,3.9c15.4,0,15.4,3.4,30.8,3.4V-93
	c-15.4,0-15.4,0-30.8,0c-15.3,0-15.3,0-30.7,0c-15.3,0-15.3,0-30.7,0c-15.3,0-15.3,0-30.7,0c-15.4,0-15.4,0-30.8,0
	c-15.3,0-15.3,0-30.7,0c-15.3,0-15.3,0-30.7,0c-15.3,0-15.3,0-30.7,0c-15.4,0-15.4,0-30.8,0c-15.3,0-15.3,0-30.7,0
	c-15.3,0-15.3,0-30.7,0c-15.3,0-15.3-61.4-30.7-61.4c-15.4,0-15.4,5.6-30.8,5.6c-15.3,0-15.3,4.8-30.7,4.8
	c-15.3,0-15.3,6.1-30.7,6.1c-15.3,0-15.3,1.9-30.7,1.9c-15.4,0-15.4-1.4-30.8-1.4c-15.3,0-15.3,0-30.7,0s-15.3-1.7-30.7-1.7
	c-15.3,0-15.3-1.4-30.7-1.4c-15.4,0-15.4,1.7-30.8,1.7C90.1-138.6,90.1-93,74.8-93s-15.3,0-30.7,0s-15.3,0-30.7,0V-137.5z"/>
<path class="st3" d="M13.4-189.4c15.3,0,15.3,2.5,30.7,2.5s15.3,5.2,30.7,5.2s15.3,44,30.7,44c15.4,0,15.4-1.7,30.8-1.7
	c15.3,0,15.3,1.4,30.7,1.4c15.3,0,15.3,1.7,30.7,1.7s15.3,0,30.7,0c15.4,0,15.4,1.4,30.8,1.4c15.3,0,15.3-1.9,30.7-1.9
	c15.3,0,15.3-6.1,30.7-6.1c15.3,0,15.3-4.8,30.7-4.8c15.4,0,15.4-5.6,30.8-5.6c15.3,0,15.3-76.9,30.7-76.9c15.3,0,15.3-2.2,30.7-2.2
	c15.3,0,15.3-0.1,30.7-0.1c15.4,0,15.4,5.3,30.8,5.3c15.3,0,15.3,3.9,30.7,3.9c15.3,0,15.3-78.6,30.7-78.6c15.3,0,15.3-6.6,30.7-6.6
	c15.4,0,15.4,14.2,30.8,14.2c15.3,0,15.3,13.2,30.7,13.2c15.3,0,15.3-60.7,30.7-60.7c15.3,0,15.3,15.1,30.7,15.1
	c15.4,0,15.4,18.3,30.8,18.3v64.4c-15.4,0-15.4-14.1-30.8-14.1c-15.3,0-15.3-15.3-30.7-15.3c-15.3,0-15.3,61.7-30.7,61.7
	c-15.3,0-15.3-7-30.7-7c-15.4,0-15.4-10.7-30.8-10.7c-15.3,0-15.3,3.5-30.7,3.5c-15.3,0-15.3,74-30.7,74c-15.3,0-15.3-2.3-30.7-2.3
	c-15.4,0-15.4-4.1-30.8-4.1c-15.3,0-15.3-1.7-30.7-1.7c-15.3,0-15.3,0.6-30.7,0.6c-15.3,0-15.3,66.5-30.7,66.5
	c-15.4,0-15.4,0-30.8,0c-15.3,0-15.3,0-30.7,0c-15.3,0-15.3,0-30.7,0c-15.3,0-15.3,0-30.7,0c-15.4,0-15.4,0-30.8,0
	c-15.3,0-15.3,0-30.7,0s-15.3,0-30.7,0c-15.3,0-15.3,0-30.7,0c-15.4,0-15.4,0-30.8,0c-15.3,0-15.3-40.8-30.7-40.8s-15.3-3-30.7-3
	s-15.3-1.7-30.7-1.7V-189.4z"/>
<path class="st4" d="M13.4-93h737.1"/>
<polyline class="st5" points="44.1,-415.1 44.1,-93 44.1,-87.4 "/>
<text transform="matrix(1 0 0 1 33.6201 -77.8732)" class="st13" style="font-size:13.1465px;">1998</text>
<line class="st4" x1="105.5" y1="-93" x2="105.5" y2="-87.4"/>
<text transform="matrix(1 0 0 1 95.0068 -77.8732)" class="st13" style="font-size:13.1465px;">2000</text>
<line class="st4" x1="166.9" y1="-93" x2="166.9" y2="-87.4"/>
<text transform="matrix(1 0 0 1 156.4765 -77.8732)" class="st13" style="font-size:13.1465px;">2002</text>
<line class="st4" x1="228.3" y1="-93" x2="228.3" y2="-87.4"/>
<text transform="matrix(1 0 0 1 217.8633 -77.8732)" class="st13" style="font-size:13.1465px;">2004</text>
<line class="st4" x1="289.8" y1="-93" x2="289.8" y2="-87.4"/>
<text transform="matrix(1 0 0 1 279.333 -77.8732)" class="st13" style="font-size:13.1465px;">2006</text>
<line class="st4" x1="351.2" y1="-93" x2="351.2" y2="-87.4"/>
<text transform="matrix(1 0 0 1 340.7207 -77.8732)" class="st13" style="font-size:13.1465px;">2008</text>
<line class="st4" x1="412.6" y1="-93" x2="412.6" y2="-87.4"/>
<text transform="matrix(1 0 0 1 402.1904 -77.8732)" class="st13" style="font-size:13.1465px;">2010</text>
<line class="st4" x1="474" y1="-93" x2="474" y2="-87.4"/>
<text transform="matrix(1 0 0 1 463.5761 -77.8732)" class="st13" style="font-size:13.1465px;">2012</text>
<line class="st4" x1="535.5" y1="-93" x2="535.5" y2="-87.4"/>
<text transform="matrix(1 0 0 1 525.0479 -77.8732)" class="st13" style="font-size:13.1465px;">2014</text>
<line class="st4" x1="596.9" y1="-93" x2="596.9" y2="-87.4"/>
<text transform="matrix(1 0 0 1 586.4336 -77.8732)" class="st13" style="font-size:13.1465px;">2016</text>
<line class="st4" x1="658.4" y1="-93" x2="658.4" y2="-87.4"/>
<text transform="matrix(1 0 0 1 647.9043 -77.8732)" class="st13" style="font-size:13.1465px;">2018</text>
<line class="st4" x1="719.7" y1="-93" x2="719.7" y2="-87.4"/>
<text transform="matrix(1 0 0 1 709.291 -77.8732)" class="st13" style="font-size:13.1465px;">2020</text>
<text transform="matrix(1 0 0 1 401.4111 -361.7516)" class="st7" style="font-size:13.1465px;">Race</text>
<text transform="matrix(1 0 0 1 401.4111 -361.7516)" class="st7" style="fill:#231F20; font-size:13.1465px;">Race</text>
<text transform="matrix(1 0 0 1 465.6679 -274.4533)" class="st7" style="font-size:13.1465px;">Sex</text>
<text transform="matrix(1 0 0 1 465.6679 -274.4533)" class="st7" style="fill:#231F20; font-size:13.1465px;">Sex</text>
<text transform="matrix(1 0 0 1 342.2949 -182.4182)" class="st7" style="font-size:13.1465px;">Age</text>
<text transform="matrix(1 0 0 1 342.2949 -182.4182)" class="st7" style="fill:#231F20; font-size:13.1465px;">Age</text>
<text transform="matrix(1 0 0 1 576.0059 -267.1662)" class="st7" style="font-size:13.1465px;">Disability</text>
<text transform="matrix(1 0 0 1 576.0059 -267.1662)" class="st7" style="fill:#231F20; font-size:13.1465px;">Disability</text>
<text transform="matrix(1 0 0 1 13.3721 -484.8128)"><tspan x="0" y="0" class="st3 st7" style="font-size:19.7266px;">Disability-related claims</tspan><tspan x="225.9" y="0" class="st7" style="font-size:19.7266px;"> are now the top employment discrimination claims filed</tspan></text>
<text transform="matrix(1 0 0 1 742.564 -77.8732)" class="st13" style="font-size:13.1465px;">2021</text>
<line class="st4" x1="750.5" y1="-93" x2="750.5" y2="-87.4"/>
<text transform="matrix(1 0 0 1 15.8901 -456.7701)"><tspan x="0" y="0" class="st9" style="font-size:14px;">Disability discrimination claims rose by 26% over the past 16 years, overtaking race and sex as the biggest </tspan><tspan x="0" y="16.8" class="st9" style="font-size:14px;">complaint among jobseekers and employees</tspan><tspan x="277" y="16.8" class="st7" style="font-size:14px;"> </tspan></text>
<text transform="matrix(1 0 0 1 58.7012 -408.9079)"><tspan x="0" y="0" class="st9" style="font-size:12px;">Cases filed in 1998:</tspan><tspan x="0" y="14.4" class="st9" style="font-size:12px;">Race - 28,820 </tspan><tspan x="0" y="28.8" class="st9" style="font-size:12px;">Sex - 24,454</tspan><tspan x="68" y="28.8" class="st9" style="font-size:12px;">	</tspan><tspan x="72" y="28.8" class="st9" style="font-size:12px;"> </tspan><tspan x="0" y="43.2" class="st9" style="font-size:12px;">Disability - 17,806 </tspan><tspan x="0" y="57.6" class="st9" style="font-size:12px;">Age - 15,191</tspan></text>
<polyline class="st5" points="750.5,-428.3 750.5,-106.2 750.5,-100.5 "/>
<text transform="matrix(1 0 0 1 642.0316 -432.0709)"><tspan x="0" y="0" class="st9" style="font-size:12px;">Cases filed in 2021:</tspan><tspan x="0" y="14.4" class="st9" style="font-size:12px;">Race - 20,908 </tspan><tspan x="0" y="28.8" class="st9" style="font-size:12px;">Sex - 18,762</tspan><tspan x="68" y="28.8" class="st9" style="font-size:12px;">	</tspan><tspan x="72" y="28.8" class="st9" style="font-size:12px;"> </tspan><tspan x="0" y="43.2" class="st9" style="font-size:12px;">Disability - 22,843 </tspan><tspan x="0" y="57.6" class="st9" style="font-size:12px;">Age - 12,965</tspan></text>
<rect x="642" y="-399" class="st6" width="100.6" height="13.2"/>
<rect x="58.7" y="-378.4" class="st6" width="98.2" height="14.5"/>
<text transform="matrix(1 0 0 1 7.1 -52.2106)" class="st9" style="font-size:8.1139px;">Source: U.S. Equal Employment Opportunity Commission</text>
<text transform="matrix(1 0 0 1 4.0669 9.9891)"><tspan x="0" y="0" class="st3 st7 st8">Disability-related claims </tspan><tspan x="89.5" y="0" class="st7 st8">are now the top employment discrimination claims filed</tspan></text>
<text transform="matrix(1 0 0 1 4.6235 19.3582)"><tspan x="0" y="0" class="st9 st10">Disability discrimination claims rose by 26% over the past 16 years, overtaking race and sex as the biggest </tspan><tspan x="0" y="6.7" class="st9 st10">complaint among jobseekers and employees</tspan><tspan x="110.4" y="6.7" class="st7 st10"> </tspan></text>
<text transform="matrix(1 0 0 1 955.2541 580.8105)" style="font-family:'MyriadPro-Regular'; font-size:12px;">#bebada</text>
<text transform="matrix(1 0 0 1 4.0676 274.7318)" class="st9 st11">Source: U.S. Equal Employment Opportunity Commission</text>
<rect id="backgorund_00000026130529672361320390000002430296536355015049_" x="4.7" y="55.6" class="st12" width="285.4" height="206.9"/>
<path class="st0" d="M8.2,72.5c15.5,0,15.5,8,31,8c15.4,0,15.4,8.1,30.9,8.1s15.4-2.4,30.9-2.4s15.4-5.9,30.9-5.9
	c15.5,0,15.5,14.2,31,14.2c15.4,0,15.4,93.8,30.9,93.8s15.4-35.1,30.9-35.1c15.4,0,15.4,8.7,30.9,8.7c15.5,0,15.5,8.1,31,8.1v33.6
	c-15.5,0-15.5-6.2-31-6.2c-15.4,0-15.4-5.7-30.9-5.7c-15.4,0-15.4,36.1-30.9,36.1s-15.4-87.4-30.9-87.4c-15.5,0-15.5-8.1-31-8.1
	c-15.4,0-15.4,3.8-30.9,3.8s-15.4,2.5-30.9,2.5s-15.4-4.9-30.9-4.9c-15.5,0-15.5-7.3-31-7.3V72.5z"/>
<path class="st1" d="M8.2,126.8c15.5,0,15.5,7.3,31,7.3c15.4,0,15.4,4.9,30.9,4.9s15.4,41.3,30.9,41.3s15.4-2,30.9-2
	c15.5,0,15.5,6.1,31,6.1c15.4,0,15.4-76,30.9-76s15.4,83.8,30.9,83.8c15.4,0,15.4,5.7,30.9,5.7c15.5,0,15.5,6.2,31,6.2v30.2
	c-15.5,0-15.5-2-31-2c-15.4,0-15.4-2.2-30.9-2.2c-15.4,0-15.4-82-30.9-82s-15.4,77.5-30.9,77.5c-15.5,0-15.5-4-31-4
	c-15.4,0-15.4,1.1-30.9,1.1s-15.4-41.9-30.9-41.9s-15.4-2.2-30.9-2.2c-15.5,0-15.5-3-31-3V126.8z"/>
<path class="st2" d="M8.2,218.8c15.5,0,15.5,2.4,31,2.4c15.4,0,15.4,1.3,30.9,1.3s15.4,0.7,30.9,0.7s15.4-1.1,30.9-1.1
	c15.5,0,15.5,4,31,4c15.4,0,15.4,2.4,30.9,2.4s15.4,2.2,30.9,2.2c15.4,0,15.4,2.2,30.9,2.2c15.5,0,15.5,2,31,2v20.9
	c-15.5,0-15.5,0-31,0c-15.4,0-15.4,0-30.9,0c-15.4,0-15.4,0-30.9,0s-15.4,0-30.9,0c-15.5,0-15.5,0-31,0c-15.4,0-15.4,0-30.9,0
	s-15.4,0-30.9,0s-15.4,0-30.9,0c-15.5,0-15.5,0-31,0V218.8z"/>
<path class="st3" d="M8.2,176c15.5,0,15.5,3,31,3c15.4,0,15.4,2.2,30.9,2.2s15.4-44.7,30.9-44.7s15.4-3.8,30.9-3.8
	c15.5,0,15.5,8.1,31,8.1c15.4,0,15.4,7.6,30.9,7.6s15.4-34.5,30.9-34.5c15.4,0,15.4,8.6,30.9,8.6c15.5,0,15.5,10.4,31,10.4v36.8
	c-15.5,0-15.5-8.1-31-8.1c-15.4,0-15.4-8.7-30.9-8.7c-15.4,0-15.4,35.1-30.9,35.1s-15.4-4-30.9-4c-15.5,0-15.5-6.1-31-6.1
	c-15.4,0-15.4,2-30.9,2s-15.4,42.1-30.9,42.1s-15.4-1.3-30.9-1.3c-15.5,0-15.5-2.4-31-2.4V176z"/>
<path class="st4" d="M8.2,255.6h278.3"/>
<line class="st4" x1="8.2" y1="255.6" x2="8.2" y2="257.6"/>
<text transform="matrix(1.0282 0 0 1 4.2678 261.1169)" class="st13 st14">2012</text>
<line class="st4" x1="39.2" y1="255.6" x2="39.2" y2="257.6"/>
<text transform="matrix(1.0282 0 0 1 35.2498 261.1169)" class="st13 st14">2013</text>
<line class="st4" x1="70.1" y1="255.6" x2="70.1" y2="257.6"/>
<text transform="matrix(1.0282 0 0 1 66.1477 261.1169)" class="st13 st14">2014</text>
<line class="st4" x1="101" y1="255.6" x2="101" y2="257.6"/>
<text transform="matrix(1.0282 0 0 1 97.0452 261.1169)" class="st13 st14">2015</text>
<line class="st4" x1="131.9" y1="255.6" x2="131.9" y2="257.6"/>
<text transform="matrix(1.0282 0 0 1 127.9426 261.1169)" class="st13 st14">2016</text>
<line class="st4" x1="162.9" y1="255.6" x2="162.9" y2="257.6"/>
<text transform="matrix(1.0282 0 0 1 158.9246 261.1169)" class="st13 st14">2017</text>
<line class="st4" x1="193.8" y1="255.6" x2="193.8" y2="257.6"/>
<text transform="matrix(1.0282 0 0 1 189.8225 261.1169)" class="st13 st14">2018</text>
<line class="st4" x1="224.7" y1="255.6" x2="224.7" y2="257.6"/>
<text transform="matrix(1.0282 0 0 1 220.72 261.1169)" class="st13 st14">2019</text>
<line class="st4" x1="255.6" y1="255.6" x2="255.6" y2="257.6"/>
<text transform="matrix(1.0282 0 0 1 251.6174 261.1169)" class="st13 st14">2020</text>
<line class="st4" x1="286.5" y1="255.6" x2="286.5" y2="257.6"/>
<text transform="matrix(1.0282 0 0 1 282.5999 261.1169)" class="st13 st14">2021</text>
<text transform="matrix(1.0282 0 0 1 141.1637 117.549)" class="st7 st15">Race</text>
<text transform="matrix(1.0282 0 0 1 141.6812 202.6475)" class="st7 st15">Sex</text>
<text transform="matrix(1.0282 0 0 1 141.8053 239.2144)" class="st7 st15">Age</text>
<text transform="matrix(1.0282 0 0 1 141.4224 159.4084)" class="st7 st15">Disability</text>
<text transform="matrix(1 0 0 1 11.1032 36.859)"><tspan x="0" y="0" class="st9 st16">Cases filed in 2002:</tspan><tspan x="0" y="7.7" class="st9 st16">Race - 28,820 </tspan><tspan x="0" y="15.4" class="st9 st16">Sex - 24,454</tspan><tspan x="36.5" y="15.4" class="st9 st16">	</tspan><tspan x="38.6" y="15.4" class="st9 st16"> </tspan><tspan x="0" y="23.2" class="st9 st16">Disability - 17,806 </tspan><tspan x="0" y="30.9" class="st9 st16">Age - 15,191</tspan></text>
<polyline class="st5" points="8.2,65.2 8.2,252.3 8.2,255.6 "/>
<polyline class="st5" points="286.5,63.8 286.5,250.9 286.5,254.2 "/>
<text transform="matrix(1 0 0 1 220.72 33.5202)"><tspan x="0" y="0" class="st9 st17">Cases filed in 2021:</tspan><tspan x="0" y="8.4" class="st9 st17">Race - 20,908 </tspan><tspan x="0" y="16.7" class="st9 st17">Sex - 18,762</tspan><tspan x="39.6" y="16.7" class="st9 st17">	</tspan><tspan x="41.9" y="16.7" class="st9 st17"> </tspan><tspan x="0" y="25.1" class="st9 st17">Disability - 22,843 </tspan><tspan x="0" y="33.5" class="st9 st17">Age - 12,965</tspan></text>
<rect x="220.7" y="51.3" class="st6" width="57.1" height="9.5"/>
<rect x="11.1" y="53.9" class="st6" width="53.5" height="9.5"/>
</svg>
