<svg xmlns="http://www.w3.org/2000/svg" width="805" height="600"><rect width="805" height="600" x="0" y="0" fill="#FFFFFF" id="backgorund"/><g id="viz"><g transform="translate(0,0)"><g transform="translate(10,20)"><g><path fill="#bebada" d="M0,29.181333333333335C43.690693430656935,29.181333333333335,43.690693430656935,52.49599999999998,87.38138686131387,52.49599999999998C130.95270681265208,52.49599999999998,130.95270681265208,76.06733333333337,174.52402676399026,76.06733333333337C218.09534671532845,76.06733333333337,218.09534671532845,69.16999999999997,261.66666666666663,69.16999999999997C305.23798661800487,69.16999999999997,305.23798661800487,52.19266666666665,348.8093065693431,52.19266666666665C392.5,52.19266666666665,392.5,93.38066666666666,436.19069343065695,93.38066666666666C479.7620133819951,93.38066666666666,479.7620133819951,365.282,523.3333333333333,365.282C566.9046532846714,365.282,566.9046532846714,263.622,610.4759732360097,263.622C654.047293187348,263.622,654.047293187348,288.99,697.6186131386862,288.99C741.3093065693431,288.99,741.3093065693431,312.37,785,312.37L785,409.94066666666663C741.3093065693431,409.94066666666663,741.3093065693431,391.95533333333333,697.6186131386862,391.95533333333333C654.047293187348,391.95533333333333,654.047293187348,375.51,610.4759732360097,375.51C566.9046532846714,375.51,566.9046532846714,480.082,523.3333333333333,480.082C479.7620133819951,480.082,479.7620133819951,226.51133333333334,436.19069343065695,226.51133333333334C392.5,226.51133333333334,392.5,202.96800000000002,348.8093065693431,202.96800000000002C305.23798661800487,202.96800000000002,305.23798661800487,213.96266666666665,261.66666666666663,213.96266666666665C218.09534671532845,213.96266666666665,218.09534671532845,221.07466666666667,174.52402676399026,221.07466666666667C130.95270681265208,221.07466666666667,130.95270681265208,206.81333333333336,87.38138686131387,206.81333333333336C43.690693430656935,206.81333333333336,43.690693430656935,185.57066666666665,0,185.57066666666665Z"><title>Race</title></path><path fill="#ffffb3" d="M0,186.57066666666665C43.690693430656935,186.57066666666665,43.690693430656935,207.81333333333336,87.38138686131387,207.81333333333336C130.95270681265208,207.81333333333336,130.95270681265208,222.07466666666667,174.52402676399026,222.07466666666667C218.09534671532845,222.07466666666667,218.09534671532845,341.8133333333334,261.66666666666663,341.8133333333334C305.23798661800487,341.8133333333334,305.23798661800487,335.9753333333333,348.8093065693431,335.9753333333333C392.5,335.9753333333333,392.5,353.75533333333334,436.19069343065695,353.75533333333334C479.7620133819951,353.75533333333334,479.7620133819951,133.402,523.3333333333333,133.402C566.9046532846714,133.402,566.9046532846714,376.51,610.4759732360097,376.51C654.047293187348,376.51,654.047293187348,392.95533333333333,697.6186131386862,392.95533333333333C741.3093065693431,392.95533333333333,741.3093065693431,410.94066666666663,785,410.94066666666663L785,498.49666666666667C741.3093065693431,498.49666666666667,741.3093065693431,492.81266666666664,697.6186131386862,492.81266666666664C654.047293187348,492.81266666666664,654.047293187348,486.326,610.4759732360097,486.326C566.9046532846714,486.326,566.9046532846714,248.45866666666663,523.3333333333333,248.45866666666663C479.7620133819951,248.45866666666663,479.7620133819951,473.24533333333335,436.19069343065695,473.24533333333335C392.5,473.24533333333335,392.5,461.6673333333333,348.8093065693431,461.6673333333333C305.23798661800487,461.6673333333333,305.23798661800487,464.9946666666667,261.66666666666663,464.9946666666667C218.09534671532845,464.9946666666667,218.09534671532845,343.534,174.52402676399026,343.534C130.95270681265208,343.534,130.95270681265208,337.01933333333335,87.38138686131387,337.01933333333335C43.690693430656935,337.01933333333335,43.690693430656935,328.232,0,328.232Z"><title>Sex</title></path><path fill="#8dd3c7" d="M0,453.334C43.690693430656935,453.334,43.690693430656935,460.152,87.38138686131387,460.152C130.95270681265208,460.152,130.95270681265208,463.92266666666666,174.52402676399026,463.92266666666666C218.09534671532845,463.92266666666666,218.09534671532845,465.9946666666667,261.66666666666663,465.9946666666667C305.23798661800487,465.9946666666667,305.23798661800487,462.6673333333333,348.8093065693431,462.6673333333333C392.5,462.6673333333333,392.5,474.24533333333335,436.19069343065695,474.24533333333335C479.7620133819951,474.24533333333335,479.7620133819951,481.082,523.3333333333333,481.082C566.9046532846714,481.082,566.9046532846714,487.326,610.4759732360097,487.326C654.047293187348,487.326,654.047293187348,493.81266666666664,697.6186131386862,493.81266666666664C741.3093065693431,493.81266666666664,741.3093065693431,499.49666666666667,785,499.49666666666667L785,560C741.3093065693431,560,741.3093065693431,560,697.6186131386862,560C654.047293187348,560,654.047293187348,560,610.4759732360097,560C566.9046532846714,560,566.9046532846714,560,523.3333333333333,560C479.7620133819951,560,479.7620133819951,560,436.19069343065695,560C392.5,560,392.5,560,348.8093065693431,560C305.23798661800487,560,305.23798661800487,560,261.66666666666663,560C218.09534671532845,560,218.09534671532845,560,174.52402676399026,560C130.95270681265208,560,130.95270681265208,560,87.38138686131387,560C43.690693430656935,560,43.690693430656935,560,0,560Z"><title>Age</title></path><path fill="#fb8072" d="M0,329.232C43.690693430656935,329.232,43.690693430656935,338.01933333333335,87.38138686131387,338.01933333333335C130.95270681265208,338.01933333333335,130.95270681265208,344.534,174.52402676399026,344.534C218.09534671532845,344.534,218.09534671532845,214.96266666666665,261.66666666666663,214.96266666666665C305.23798661800487,214.96266666666665,305.23798661800487,203.96800000000002,348.8093065693431,203.96800000000002C392.5,203.96800000000002,392.5,227.51133333333334,436.19069343065695,227.51133333333334C479.7620133819951,227.51133333333334,479.7620133819951,249.45866666666663,523.3333333333333,249.45866666666663C566.9046532846714,249.45866666666663,566.9046532846714,149.51133333333337,610.4759732360097,149.51133333333337C654.047293187348,149.51133333333337,654.047293187348,174.478,697.6186131386862,174.478C741.3093065693431,174.478,741.3093065693431,204.76933333333332,785,204.76933333333332L785,311.37C741.3093065693431,311.37,741.3093065693431,287.99,697.6186131386862,287.99C654.047293187348,287.99,654.047293187348,262.622,610.4759732360097,262.622C566.9046532846714,262.622,566.9046532846714,364.282,523.3333333333333,364.282C479.7620133819951,364.282,479.7620133819951,352.75533333333334,436.19069343065695,352.75533333333334C392.5,352.75533333333334,392.5,334.9753333333333,348.8093065693431,334.9753333333333C305.23798661800487,334.9753333333333,305.23798661800487,340.8133333333334,261.66666666666663,340.8133333333334C218.09534671532845,340.8133333333334,218.09534671532845,462.92266666666666,174.52402676399026,462.92266666666666C130.95270681265208,462.92266666666666,130.95270681265208,459.152,87.38138686131387,459.152C43.690693430656935,459.152,43.690693430656935,452.334,0,452.334Z"><title>Disability</title></path></g><g id="xAxis" transform="translate(0,560)" fill="none" font-size="10" font-family="sans-serif" text-anchor="middle"><path class="domain" stroke="currentColor" d="M0,0H785"/><g class="tick" opacity="1" transform="translate(0,0)"><line stroke="currentColor" y2="6"/><text fill="currentColor" y="9" dy="0.71em">2012</text></g><g class="tick" opacity="1" transform="translate(87.38138686131387,0)"><line stroke="currentColor" y2="6"/><text fill="currentColor" y="9" dy="0.71em">2013</text></g><g class="tick" opacity="1" transform="translate(174.52402676399026,0)"><line stroke="currentColor" y2="6"/><text fill="currentColor" y="9" dy="0.71em">2014</text></g><g class="tick" opacity="1" transform="translate(261.66666666666663,0)"><line stroke="currentColor" y2="6"/><text fill="currentColor" y="9" dy="0.71em">2015</text></g><g class="tick" opacity="1" transform="translate(348.8093065693431,0)"><line stroke="currentColor" y2="6"/><text fill="currentColor" y="9" dy="0.71em">2016</text></g><g class="tick" opacity="1" transform="translate(436.19069343065695,0)"><line stroke="currentColor" y2="6"/><text fill="currentColor" y="9" dy="0.71em">2017</text></g><g class="tick" opacity="1" transform="translate(523.3333333333333,0)"><line stroke="currentColor" y2="6"/><text fill="currentColor" y="9" dy="0.71em">2018</text></g><g class="tick" opacity="1" transform="translate(610.4759732360097,0)"><line stroke="currentColor" y2="6"/><text fill="currentColor" y="9" dy="0.71em">2019</text></g><g class="tick" opacity="1" transform="translate(697.6186131386862,0)"><line stroke="currentColor" y2="6"/><text fill="currentColor" y="9" dy="0.71em">2020</text></g><g class="tick" opacity="1" transform="translate(785,0)"><line stroke="currentColor" y2="6"/><text fill="currentColor" y="9" dy="0.71em">2021</text></g></g><text y="556" x="785" text-anchor="end" style="font-family: Arial, sans-serif; font-size: 12px; fill: rgb(123, 123, 123); font-weight: bold;">Year </text><text x="4" text-anchor="start" dominant-baseline="hanging" style="font-family: Arial, sans-serif; font-size: 12px; fill: rgb(123, 123, 123); font-weight: bold;">Value</text><g id="labels"><text x="0" y="110.37600000000003" text-anchor="start" alignment-baseline="middle" style="font-family: Arial, sans-serif; font-size: 10px; fill: black; font-weight: bold;">Race</text><text x="0" y="259.40133333333335" text-anchor="start" alignment-baseline="middle" style="font-family: Arial, sans-serif; font-size: 10px; fill: black; font-weight: bold;">Sex</text><text x="0" y="506.66700000000003" text-anchor="start" alignment-baseline="middle" style="font-family: Arial, sans-serif; font-size: 10px; fill: black; font-weight: bold;">Age</text><text x="348.8093065693431" y="271.4716666666667" text-anchor="middle" alignment-baseline="middle" style="font-family: Arial, sans-serif; font-size: 10px; fill: black; font-weight: bold;">Disability</text></g></g><text x="4" y="4" style="font-family: Arial, sans-serif; font-size: 12px; fill: black; font-weight: bold; dominant-baseline: hanging;"/></g></g></svg>